<svg width="169" height="45" viewBox="0 0 169 45" fill="none" xmlns="http://www.w3.org/2000/svg">
<path fill-rule="evenodd" clip-rule="evenodd" d="M5.31286 0.382935H51.9101C54.859 0.382935 57.2462 3.48121 57.2462 7.3085V30.3937C57.2462 34.221 54.859 37.3193 51.9101 37.3193H35.1997L37.4933 44.6094L27.4062 37.3193H5.33627C2.38737 37.3193 0.000170629 34.221 0.000170629 30.3937V7.3085C-0.0232333 3.51159 2.36397 0.382935 5.31286 0.382935Z" fill="#9B5C8F"/>
<path d="M2.85548 6.67056C3.18314 6.09342 3.67462 5.78967 4.32993 5.72892C5.52353 5.60742 6.20225 6.33643 6.36607 7.91595C7.0916 14.2644 7.88733 19.6408 8.72987 24.0452L13.8553 11.3787C14.3234 10.2245 14.9085 9.61696 15.6106 9.55621C16.6404 9.46509 17.2723 10.3156 17.5297 12.1077C18.1148 16.1477 18.8638 19.5801 19.7531 22.4961C20.3616 14.7808 21.3914 9.22208 22.8424 5.78967C23.1935 4.93916 23.7084 4.51391 24.3871 4.45316C24.9254 4.39241 25.4169 4.60504 25.8616 5.06067C26.3062 5.5163 26.5403 6.09342 26.5871 6.79205C26.6105 7.33881 26.5403 7.79445 26.353 8.25008C25.4403 10.4371 24.6914 14.1125 24.0829 19.2156C23.4978 24.1667 23.2871 28.0244 23.4275 30.7886C23.4744 31.5479 23.3807 32.2162 23.1467 32.7933C22.8658 33.4616 22.4446 33.8261 21.9063 33.8868C21.2978 33.9476 20.6659 33.5831 20.0574 32.763C17.8808 29.8773 16.1489 25.564 14.8851 19.8231C13.3639 23.7111 12.2405 26.6271 11.5149 28.5712C10.1341 32.0036 8.96391 33.7653 7.98095 33.8565C7.34904 33.9172 6.81075 33.2186 6.34267 31.7606C5.14907 27.7814 3.86185 20.0965 2.48102 8.70571C2.41081 7.91595 2.52783 7.21731 2.85548 6.67056Z" fill="white"/>
<path d="M53.1737 11.4396C52.3312 9.52591 51.0908 8.37165 49.4291 7.91602C48.9844 7.79452 48.5631 7.73376 48.1653 7.73376C45.9185 7.73376 44.093 9.25253 42.6653 12.2901C41.4483 14.872 40.8398 17.7272 40.8398 20.8559C40.8398 23.1948 41.2143 25.1996 41.9632 26.8702C42.8058 28.7839 44.0462 29.9381 45.7079 30.3938C46.1525 30.5153 46.5738 30.576 46.9717 30.576C49.2419 30.576 51.0674 29.0572 52.4716 26.0197C53.6886 23.4074 54.2971 20.5521 54.2971 17.4235C54.2971 15.0542 53.9226 13.0798 53.1737 11.4396ZM50.2248 19.8535C49.8972 21.8583 49.3121 23.3467 48.4461 24.3491C47.7674 25.1388 47.1355 25.473 46.5504 25.3211C45.9887 25.1692 45.5206 24.5313 45.1696 23.3467C44.8887 22.405 44.7483 21.4634 44.7483 20.5825C44.7483 19.8231 44.7951 19.0638 44.9121 18.3651C45.1228 17.1197 45.5206 15.9047 46.1525 14.7505C46.9249 13.2621 47.744 12.6546 48.5865 12.8672C49.1482 13.0191 49.6163 13.657 49.9674 14.8416C50.2482 15.7832 50.3886 16.7249 50.3886 17.6057C50.3886 18.3955 50.3184 19.1549 50.2248 19.8535Z" fill="white"/>
<path d="M38.4999 11.4396C37.6573 9.52591 36.3935 8.37165 34.7553 7.91602C34.3106 7.79452 33.8893 7.73376 33.4914 7.73376C31.2447 7.73376 29.4192 9.25253 27.9915 12.2901C26.7745 14.872 26.166 17.7272 26.166 20.8559C26.166 23.1948 26.5405 25.1996 27.2894 26.8702C28.1319 28.7839 29.3724 29.9381 31.034 30.3938C31.4787 30.5153 31.9 30.576 32.2978 30.576C34.568 30.576 36.3935 29.0572 37.7978 26.0197C39.0148 23.4074 39.6233 20.5521 39.6233 17.4235C39.6233 15.0542 39.2488 13.0798 38.4999 11.4396ZM35.551 19.8535C35.2233 21.8583 34.6382 23.3467 33.7723 24.3491C33.0936 25.1388 32.4617 25.473 31.8766 25.3211C31.3149 25.1692 30.8468 24.5313 30.4957 23.3467C30.2149 22.405 30.0745 21.4634 30.0745 20.5825C30.0745 19.8231 30.1213 19.0638 30.2383 18.3651C30.4489 17.1197 30.8468 15.9047 31.4787 14.7505C32.251 13.2621 33.0702 12.6546 33.9127 12.8672C34.4744 13.0191 34.9425 13.657 35.2935 14.8416C35.5744 15.7832 35.7148 16.7249 35.7148 17.6057C35.7148 18.3955 35.668 19.1549 35.551 19.8535Z" fill="white"/>
<path d="M63.1675 11.1663C61.5995 13.1711 60.8271 15.7226 60.8271 18.8209C60.8271 22.1318 61.5995 24.8352 63.1441 26.8704C64.6888 28.9055 66.7015 29.9383 69.2058 29.9383C69.9313 29.9383 70.7504 29.7864 71.6398 29.4523V24.5315C70.8206 24.8352 70.1185 24.9871 69.51 24.9871C68.2696 24.9871 67.2866 24.4404 66.5377 23.3772C65.7888 22.2837 65.4143 20.8257 65.4143 18.9728C65.4143 17.2414 65.7888 15.8138 66.5143 14.7203C67.2632 13.5964 68.176 13.0496 69.2994 13.0496C70.0249 13.0496 70.7972 13.2015 71.6398 13.5052V8.58444C70.8674 8.31106 70.0015 8.18956 69.0887 8.18956C66.7015 8.15918 64.7356 9.16157 63.1675 11.1663ZM79.4099 8.15918C77.2567 8.15918 75.5716 9.10082 74.3546 10.9537C73.1376 12.8066 72.5525 15.4189 72.5525 18.7602C72.5525 22.3748 73.161 25.139 74.3546 27.0526C75.5482 28.9663 77.3035 29.9383 79.5971 29.9383C81.8205 29.9383 83.529 28.9663 84.7226 27.0526C85.9162 25.139 86.5247 22.4356 86.5247 18.9728C86.5247 15.51 85.9162 12.837 84.6992 10.9537C83.4588 9.10082 81.7035 8.15918 79.4099 8.15918ZM81.2588 23.9543C80.8375 24.8049 80.2056 25.2301 79.4099 25.2301C78.6609 25.2301 78.0993 24.8049 77.7014 23.9543C77.3035 23.1038 77.1163 21.4028 77.1163 18.8209C77.1163 14.8418 77.8886 12.8674 79.4567 12.8674C81.095 12.8674 81.9375 14.8721 81.9375 18.9121C81.9141 21.4028 81.6801 23.1038 81.2588 23.9543ZM98.0862 8.73632L97.2437 13.3837C97.033 14.5684 96.8224 15.7834 96.6352 17.0288L96.1671 20.2486C95.7224 17.0288 95.1139 13.2015 94.3416 8.73632H88.9119L86.8757 29.4219H90.948L92.048 15.1759L94.8331 29.4219H97.7352L100.403 15.2063L101.55 29.4219H105.81L103.656 8.73632H98.0862ZM117.582 8.73632L116.739 13.3837C116.529 14.5684 116.318 15.7834 116.131 17.0288L115.663 20.2486C115.218 17.0288 114.609 13.2015 113.837 8.73632H108.407L106.371 29.4219H110.444L111.543 15.1759L114.329 29.4219H117.231L119.875 15.2063L121.022 29.4219H125.282L123.128 8.73632H117.582ZM130.828 21.2509H134.643V16.968H130.828V13.1711H135.228V8.76669H126.522V29.4523H135.252V25.0479H130.828V21.2509ZM147.375 17.9704C147.82 17.0288 148.054 16.0568 148.054 15.0544C148.054 13.1104 147.469 11.5612 146.298 10.4373C145.128 9.31344 143.513 8.73632 141.501 8.73632H136.492V29.4219H140.798V20.0056H140.869L144.356 29.4219H148.896L145.456 20.0967C146.275 19.6107 146.93 18.912 147.375 17.9704ZM140.775 17.6363V12.7155C141.805 12.7459 142.53 12.9585 142.975 13.3837C143.42 13.809 143.63 14.4772 143.63 15.4493C143.63 16.8769 142.671 17.6059 140.775 17.6363ZM150.581 11.1663C149.013 13.1711 148.241 15.7226 148.241 18.8209C148.241 22.1318 149.013 24.8352 150.558 26.8704C152.103 28.9055 154.115 29.9383 156.619 29.9383C157.345 29.9383 158.164 29.7864 159.053 29.4523V24.5315C158.234 24.8352 157.532 24.9871 156.924 24.9871C155.683 24.9871 154.7 24.4404 153.951 23.3772C153.202 22.2837 152.828 20.8257 152.828 18.9728C152.828 17.2414 153.202 15.8138 153.928 14.7203C154.677 13.5964 155.59 13.0496 156.713 13.0496C157.439 13.0496 158.211 13.2015 159.053 13.5052V8.58444C158.281 8.31106 157.415 8.18956 156.502 8.18956C154.139 8.15918 152.149 9.16157 150.581 11.1663ZM164.553 24.9871V21.2206H168.368V16.9377H164.553V13.1407H168.977V8.73632H160.27V29.4219H169V25.0175H164.553V24.9871Z" fill="black"/>
</svg>
